<?xml version="1.0" encoding="utf-8"?>
<!-- Generator: Adobe Illustrator 17.0.2, SVG Export Plug-In . SVG Version: 6.00 Build 0)  -->
<!DOCTYPE svg PUBLIC "-//W3C//DTD SVG 1.1//EN" "http://www.w3.org/Graphics/SVG/1.1/DTD/svg11.dtd">
<svg version="1.1" id="Layer_1" xmlns="http://www.w3.org/2000/svg" xmlns:xlink="http://www.w3.org/1999/xlink" x="0px" y="0px"
	 width="40px" height="40px" viewBox="0 0 40 40" enable-background="new 0 0 40 40" xml:space="preserve">
<g>
	<g>
		<path d="M20,4c8.822,0,16,7.178,16,16s-7.178,16-16,16S4,28.822,4,20S11.178,4,20,4 M20,2C10.058,2,2,10.058,2,20
			c0,9.942,8.058,18,18,18s18-8.058,18-18C38,10.058,29.942,2,20,2L20,2z"/>
	</g>
	<path d="M17.196,16.68h-2.009v3.28h2.009v9.634h3.863v-9.675h2.696l0.287-3.239h-2.983c0,0,0-1.209,0-1.845
		c0-0.764,0.154-1.066,0.892-1.066c0.594,0,2.091,0,2.091,0v-3.362c0,0-2.204,0-2.675,0c-2.875,0-4.171,1.266-4.171,3.69
		C17.196,16.208,17.196,16.68,17.196,16.68z"/>
</g>
</svg>
