<?xml version="1.0" encoding="utf-8"?>
<!-- Generator: Adobe Illustrator 17.0.2, SVG Export Plug-In . SVG Version: 6.00 Build 0)  -->
<!DOCTYPE svg PUBLIC "-//W3C//DTD SVG 1.1//EN" "http://www.w3.org/Graphics/SVG/1.1/DTD/svg11.dtd">
<svg version="1.1" id="Layer_1" xmlns="http://www.w3.org/2000/svg" xmlns:xlink="http://www.w3.org/1999/xlink" x="0px" y="0px"
	 width="40px" height="40px" viewBox="0 0 40 40" enable-background="new 0 0 40 40" xml:space="preserve">
<g>
	<g>
		<path d="M20,4c8.822,0,16,7.178,16,16s-7.178,16-16,16S4,28.822,4,20S11.178,4,20,4 M20,2C10.058,2,2,10.058,2,20
			c0,9.942,8.058,18,18,18s18-8.058,18-18C38,10.058,29.942,2,20,2L20,2z"/>
	</g>
	<path d="M26.457,11.607H13.544c-1.069,0-1.936,0.867-1.936,1.936v12.911c0,1.07,0.867,1.938,1.936,1.938h12.912
		c1.07,0,1.936-0.867,1.936-1.937V13.544C28.393,12.474,27.526,11.607,26.457,11.607z M20,16.772c1.783,0,3.228,1.445,3.228,3.227
		c0,1.783-1.445,3.228-3.228,3.228s-3.228-1.446-3.228-3.228C16.773,18.216,18.218,16.772,20,16.772z M26.457,25.809
		c0,0.356-0.289,0.645-0.646,0.645h-11.62c-0.357,0-0.646-0.289-0.646-0.645v-7.102h1.461c-0.106,0.413-0.17,0.845-0.17,1.291
		c0,2.853,2.312,5.165,5.164,5.165s5.164-2.312,5.164-5.165c0-0.446-0.063-0.878-0.169-1.291h1.461v7.102H26.457z M26.457,16.126
		c0,0.356-0.289,0.646-0.646,0.646h-1.936c-0.357,0-0.646-0.289-0.646-0.646v-1.937c0-0.356,0.289-0.646,0.646-0.646h1.936
		c0.357,0,0.646,0.289,0.646,0.646V16.126z"/>
</g>
</svg>
