<?xml version="1.0" encoding="utf-8"?>
<!-- Generator: Adobe Illustrator 17.0.2, SVG Export Plug-In . SVG Version: 6.00 Build 0)  -->
<!DOCTYPE svg PUBLIC "-//W3C//DTD SVG 1.1//EN" "http://www.w3.org/Graphics/SVG/1.1/DTD/svg11.dtd">
<svg version="1.1" id="Layer_1" xmlns="http://www.w3.org/2000/svg" xmlns:xlink="http://www.w3.org/1999/xlink" x="0px" y="0px"
	 width="40px" height="40px" viewBox="0 0 40 40" enable-background="new 0 0 40 40" xml:space="preserve">
<g>
	<g>
		<path d="M20,4c8.822,0,16,7.178,16,16s-7.178,16-16,16S4,28.822,4,20S11.178,4,20,4 M20,2C10.058,2,2,10.058,2,20
			c0,9.942,8.058,18,18,18c9.942,0,18-8.058,18-18C38,10.058,29.942,2,20,2L20,2z"/>
	</g>
	<path d="M20.466,11.021c-5.447,0-8.193,3.905-8.193,7.161c0,1.972,0.746,3.726,2.348,4.38c0.263,0.107,0.498,0.004,0.574-0.287
		c0.053-0.201,0.178-0.709,0.234-0.92c0.077-0.288,0.047-0.388-0.165-0.639c-0.462-0.545-0.757-1.25-0.757-2.248
		c0-2.897,2.168-5.491,5.644-5.491c3.078,0,4.77,1.881,4.77,4.393c0,3.305-1.463,6.095-3.634,6.095
		c-1.199,0-2.097-0.992-1.809-2.208c0.345-1.452,1.012-3.02,1.012-4.068c0-0.938-0.504-1.721-1.546-1.721
		c-1.226,0-2.211,1.268-2.211,2.967c0,1.082,0.366,1.814,0.366,1.814s-1.255,5.316-1.474,6.247
		c-0.438,1.854-0.066,4.127-0.034,4.356c0.018,0.136,0.193,0.168,0.272,0.066c0.113-0.148,1.573-1.95,2.07-3.752
		c0.141-0.51,0.807-3.151,0.807-3.151c0.398,0.76,1.562,1.429,2.8,1.429c3.685,0,6.186-3.36,6.186-7.857
		C27.724,14.188,24.843,11.021,20.466,11.021z"/>
</g>
</svg>
