<?xml version="1.0" encoding="utf-8"?>
<!-- Generator: Adobe Illustrator 17.0.2, SVG Export Plug-In . SVG Version: 6.00 Build 0)  -->
<!DOCTYPE svg PUBLIC "-//W3C//DTD SVG 1.1//EN" "http://www.w3.org/Graphics/SVG/1.1/DTD/svg11.dtd">
<svg version="1.1" id="Layer_1" xmlns="http://www.w3.org/2000/svg" xmlns:xlink="http://www.w3.org/1999/xlink" x="0px" y="0px"
	 width="40px" height="40px" viewBox="0 0 40 40" enable-background="new 0 0 40 40" xml:space="preserve">
<g>
	<g>
		<path d="M20,4c8.822,0,16,7.178,16,16s-7.178,16-16,16S4,28.822,4,20S11.178,4,20,4 M20,2C10.058,2,2,10.058,2,20
			c0,9.942,8.058,18,18,18s18-8.058,18-18C38,10.058,29.942,2,20,2L20,2z"/>
	</g>
	<path d="M17.764,10.52c-0.121,0.977-0.341,1.781-0.661,2.414s-0.745,1.174-1.274,1.625s-1.165,0.798-1.907,1.039v2.701h2.076v6.645
		c0,0.866,0.09,1.526,0.272,1.982c0.181,0.456,0.507,0.887,0.977,1.291c0.47,0.405,1.038,0.716,1.704,0.935
		c0.666,0.218,1.431,0.328,2.297,0.328c0.763,0,1.473-0.077,2.13-0.23c0.656-0.153,1.39-0.42,2.2-0.801v-2.982
		c-0.95,0.624-1.905,0.936-2.864,0.936c-0.54,0-1.02-0.126-1.439-0.378c-0.317-0.186-0.533-0.435-0.65-0.747
		s-0.174-1.018-0.174-2.117v-4.863h4.502v-2.977h-4.502v-4.803L17.764,10.52L17.764,10.52z"/>
</g>
</svg>
