<?xml version="1.0" encoding="utf-8"?>
<!-- Generator: Adobe Illustrator 17.0.2, SVG Export Plug-In . SVG Version: 6.00 Build 0)  -->
<!DOCTYPE svg PUBLIC "-//W3C//DTD SVG 1.1//EN" "http://www.w3.org/Graphics/SVG/1.1/DTD/svg11.dtd">
<svg version="1.1" id="Layer_1" xmlns="http://www.w3.org/2000/svg" xmlns:xlink="http://www.w3.org/1999/xlink" x="0px" y="0px"
	 width="40px" height="40px" viewBox="0 0 40 40" enable-background="new 0 0 40 40" xml:space="preserve">
<g>
	<path id="twitter-5-icon_1_" d="M30,14.759c-0.736,0.327-1.527,0.547-2.357,0.646c0.847-0.508,1.498-1.311,1.804-2.27
		c-0.793,0.471-1.671,0.812-2.606,0.996c-0.749-0.797-1.815-1.296-2.995-1.296c-2.649,0-4.595,2.472-3.997,5.038
		c-3.41-0.171-6.433-1.805-8.457-4.287c-1.075,1.844-0.558,4.257,1.27,5.478c-0.673-0.021-1.305-0.206-1.858-0.513
		c-0.045,1.901,1.317,3.678,3.291,4.075c-0.578,0.157-1.21,0.193-1.852,0.07c0.522,1.63,2.037,2.816,3.833,2.849
		c-1.725,1.352-3.898,1.956-6.075,1.7c1.816,1.165,3.973,1.844,6.29,1.844c7.617,0,11.922-6.434,11.663-12.205
		C28.754,16.305,29.449,15.582,30,14.759z"/>
	<g>
		<path d="M20,4c8.822,0,16,7.178,16,16s-7.178,16-16,16S4,28.822,4,20S11.178,4,20,4 M20,2C10.058,2,2,10.058,2,20
			c0,9.942,8.058,18,18,18s18-8.058,18-18C38,10.058,29.942,2,20,2L20,2z"/>
	</g>
</g>
</svg>
